<mxfile host="app.diagrams.net" modified="2023-06-03T17:09:18.356Z" agent="Mozilla/5.0 (Windows NT 10.0; Win64; x64) AppleWebKit/537.36 (KHTML, like Gecko) Chrome/112.0.0.0 Safari/537.36 OPR/98.0.0.0" etag="s1rAZ5anxav8D2gW-IAd" version="21.3.7" type="google">
  <diagram name="Page-1" id="e7e014a7-5840-1c2e-5031-d8a46d1fe8dd">
    <mxGraphModel grid="1" page="1" gridSize="10" guides="1" tooltips="1" connect="1" arrows="1" fold="1" pageScale="1" pageWidth="1169" pageHeight="826" background="none" math="0" shadow="0">
      <root>
        <mxCell id="0" />
        <mxCell id="1" parent="0" />
        <mxCell id="60U7CGxUBecx_QKV-MWQ-43" value="" style="edgeStyle=orthogonalEdgeStyle;rounded=0;orthogonalLoop=1;jettySize=auto;html=1;" edge="1" parent="1" source="7" target="8">
          <mxGeometry relative="1" as="geometry" />
        </mxCell>
        <mxCell id="7" value="Verificar Agenda" style="rounded=1;" vertex="1" parent="1">
          <mxGeometry x="450" y="260" width="110" height="50" as="geometry" />
        </mxCell>
        <mxCell id="60U7CGxUBecx_QKV-MWQ-44" value="" style="edgeStyle=orthogonalEdgeStyle;rounded=0;orthogonalLoop=1;jettySize=auto;html=1;" edge="1" parent="1" source="8" target="10">
          <mxGeometry relative="1" as="geometry" />
        </mxCell>
        <mxCell id="8" value="Selecionar Consulta" style="rounded=1;" vertex="1" parent="1">
          <mxGeometry x="450" y="370" width="110" height="50" as="geometry" />
        </mxCell>
        <mxCell id="60U7CGxUBecx_QKV-MWQ-45" value="" style="edgeStyle=orthogonalEdgeStyle;rounded=0;orthogonalLoop=1;jettySize=auto;html=1;" edge="1" parent="1" source="10" target="60U7CGxUBecx_QKV-MWQ-41">
          <mxGeometry relative="1" as="geometry" />
        </mxCell>
        <mxCell id="10" value="Cancelar Consulta" style="rounded=1;" vertex="1" parent="1">
          <mxGeometry x="450" y="475" width="110" height="50" as="geometry" />
        </mxCell>
        <mxCell id="60U7CGxUBecx_QKV-MWQ-42" value="" style="edgeStyle=orthogonalEdgeStyle;rounded=0;orthogonalLoop=1;jettySize=auto;html=1;" edge="1" parent="1" source="5" target="7">
          <mxGeometry relative="1" as="geometry" />
        </mxCell>
        <mxCell id="5" value="" style="ellipse;shape=startState;fillColor=#000000;strokeColor=#FFFFFF;" vertex="1" parent="1">
          <mxGeometry x="490" y="190" width="30" height="30" as="geometry" />
        </mxCell>
        <mxCell id="60U7CGxUBecx_QKV-MWQ-47" value="" style="edgeStyle=orthogonalEdgeStyle;rounded=0;orthogonalLoop=1;jettySize=auto;html=1;" edge="1" parent="1" source="60U7CGxUBecx_QKV-MWQ-41" target="60U7CGxUBecx_QKV-MWQ-46">
          <mxGeometry relative="1" as="geometry" />
        </mxCell>
        <mxCell id="60U7CGxUBecx_QKV-MWQ-41" value="Confirmar&#xa; Cancelamento&#xa;da Consulta" style="rounded=1;" vertex="1" parent="1">
          <mxGeometry x="450" y="570" width="110" height="50" as="geometry" />
        </mxCell>
        <mxCell id="60U7CGxUBecx_QKV-MWQ-52" style="edgeStyle=orthogonalEdgeStyle;rounded=0;orthogonalLoop=1;jettySize=auto;html=1;exitX=1;exitY=0.5;exitDx=0;exitDy=0;entryX=1;entryY=0.5;entryDx=0;entryDy=0;" edge="1" parent="1" source="60U7CGxUBecx_QKV-MWQ-46" target="7">
          <mxGeometry relative="1" as="geometry">
            <Array as="points">
              <mxPoint x="630" y="703" />
              <mxPoint x="630" y="285" />
            </Array>
          </mxGeometry>
        </mxCell>
        <mxCell id="60U7CGxUBecx_QKV-MWQ-55" style="edgeStyle=orthogonalEdgeStyle;rounded=0;orthogonalLoop=1;jettySize=auto;html=1;exitX=0;exitY=0.5;exitDx=0;exitDy=0;entryX=0.5;entryY=0;entryDx=0;entryDy=0;" edge="1" parent="1" source="60U7CGxUBecx_QKV-MWQ-46" target="60U7CGxUBecx_QKV-MWQ-49">
          <mxGeometry relative="1" as="geometry">
            <Array as="points">
              <mxPoint x="430" y="703" />
              <mxPoint x="325" y="703" />
            </Array>
          </mxGeometry>
        </mxCell>
        <mxCell id="60U7CGxUBecx_QKV-MWQ-46" value="" style="rhombus;whiteSpace=wrap;html=1;rounded=1;" vertex="1" parent="1">
          <mxGeometry x="480" y="685" width="50" height="35" as="geometry" />
        </mxCell>
        <mxCell id="60U7CGxUBecx_QKV-MWQ-57" value="" style="edgeStyle=orthogonalEdgeStyle;rounded=0;orthogonalLoop=1;jettySize=auto;html=1;" edge="1" parent="1" source="60U7CGxUBecx_QKV-MWQ-49" target="60U7CGxUBecx_QKV-MWQ-56">
          <mxGeometry relative="1" as="geometry" />
        </mxCell>
        <mxCell id="60U7CGxUBecx_QKV-MWQ-49" value="Confirmação do &#xa;Cancelamento" style="rounded=1;" vertex="1" parent="1">
          <mxGeometry x="270" y="720" width="110" height="50" as="geometry" />
        </mxCell>
        <mxCell id="60U7CGxUBecx_QKV-MWQ-53" value="[Confirmar Cancelamento]" style="text;html=1;align=center;verticalAlign=middle;resizable=0;points=[];autosize=1;strokeColor=none;fillColor=none;" vertex="1" parent="1">
          <mxGeometry x="320" y="680" width="160" height="30" as="geometry" />
        </mxCell>
        <mxCell id="60U7CGxUBecx_QKV-MWQ-54" value="[Cancelar]" style="text;html=1;align=center;verticalAlign=middle;resizable=0;points=[];autosize=1;strokeColor=none;fillColor=none;rotation=90;" vertex="1" parent="1">
          <mxGeometry x="600" y="460" width="80" height="30" as="geometry" />
        </mxCell>
        <mxCell id="60U7CGxUBecx_QKV-MWQ-56" value="" style="ellipse;html=1;shape=endState;fillColor=#000000;strokeColor=#000000;" vertex="1" parent="1">
          <mxGeometry x="310" y="810" width="30" height="30" as="geometry" />
        </mxCell>
      </root>
    </mxGraphModel>
  </diagram>
</mxfile>
